<?xml version="1.0" encoding="UTF-8"?>
<svg id="Layer_1" xmlns="http://www.w3.org/2000/svg" version="1.1" viewBox="0 0 416.72 438">
  <!-- Generator: Adobe Illustrator 29.1.0, SVG Export Plug-In . SVG Version: 2.1.0 Build 142)  -->
  <defs>
    <style>
      .st0 {
        fill: #fff;
      }
    </style>
  </defs>
  <g>
    <path class="st0" d="M343.78,304.34c0,1.52-1.23,2.75-2.75,2.75s-2.75-1.23-2.75-2.75,1.23-2.75,2.75-2.75,2.75,1.23,2.75,2.75Z"/>
    <circle class="st0" cx="51.4" cy="265.65" r="3.42"/>
    <path class="st0" d="M80.58,290.27c0,1.52-1.23,2.75-2.75,2.75s-2.75-1.23-2.75-2.75,1.23-2.75,2.75-2.75,2.75,1.23,2.75,2.75Z"/>
    <circle class="st0" cx="14.54" cy="413.55" r="3.43"/>
    <path class="st0" d="M406.34,331.43c0,3.15-2.55,5.7-5.7,5.7s-5.7-2.55-5.7-5.7,2.55-5.7,5.7-5.7,5.7,2.55,5.7,5.7Z"/>
    <path class="st0" d="M399.68,97.21c0,1.78-1.45,3.23-3.23,3.23s-3.23-1.45-3.23-3.23,1.45-3.23,3.23-3.23,3.23,1.45,3.23,3.23Z"/>
    <path class="st0" d="M322.41,28.65c0,2.62-2.13,4.75-4.75,4.75s-4.75-2.13-4.75-4.75,2.13-4.75,4.75-4.75,4.75,2.13,4.75,4.75Z"/>
    <path class="st0" d="M398.54,212.42c0,1.57-1.28,2.85-2.85,2.85s-2.85-1.28-2.85-2.85,1.28-2.85,2.85-2.85,2.85,1.28,2.85,2.85Z"/>
    <circle class="st0" cx="19.84" cy="90.18" r="4.28"/>
    <path class="st0" d="M56.82,109.38c0,1.21-.98,2.19-2.19,2.19s-2.19-.98-2.19-2.19.98-2.19,2.19-2.19,2.19.98,2.19,2.19Z"/>
    <path class="st0" d="M110.71,43.41c0,1.26-1.02,2.28-2.28,2.28s-2.28-1.02-2.28-2.28,1.02-2.28,2.28-2.28,2.28,1.02,2.28,2.28Z"/>
    <path class="st0" d="M30.77,163.37c0,1.21-.98,2.19-2.19,2.19s-2.19-.98-2.19-2.19.98-2.19,2.19-2.19,2.19.98,2.19,2.19Z"/>
    <path class="st0" d="M66.23,229.34c0,1.15-.94,2.09-2.09,2.09s-2.09-.94-2.09-2.09.94-2.09,2.09-2.09,2.09.94,2.09,2.09Z"/>
    <path class="st0" d="M375.18,147.02c0,1.41-1.15,2.56-2.56,2.56s-2.56-1.15-2.56-2.56,1.15-2.56,2.56-2.56,2.56,1.15,2.56,2.56Z"/>
  </g>
  <g>
    <polygon class="st0" points="47.6 124.02 49.71 128.94 54.63 131.05 49.71 133.16 47.6 138.08 45.49 133.16 40.56 131.05 45.49 128.94 47.6 124.02"/>
    <polygon class="st0" points="392.84 170.48 394.95 175.4 399.87 177.51 394.95 179.62 392.84 184.55 390.73 179.62 385.8 177.51 390.73 175.4 392.84 170.48"/>
    <polygon class="st0" points="370.06 299.22 371.6 302.8 375.18 304.34 371.6 305.88 370.06 309.46 368.53 305.88 364.94 304.34 368.53 302.8 370.06 299.22"/>
    <polygon class="st0" points="294.82 22.02 297.44 28.15 303.57 30.77 297.44 33.4 294.82 39.52 292.19 33.4 286.07 30.77 292.19 28.15 294.82 22.02"/>
  </g>
</svg>