<?xml version="1.0" encoding="UTF-8"?>
<svg id="Layer_1" xmlns="http://www.w3.org/2000/svg" version="1.1" viewBox="0 0 201.59 78.42">
  <!-- Generator: Adobe Illustrator 29.1.0, SVG Export Plug-In . SVG Version: 2.1.0 Build 142)  -->
  <defs>
    <style>
      .st0 {
        fill: #231f20;
      }
    </style>
  </defs>
  <path class="st0" d="M38.53,20.13c.28-1.33,1.21-2.45,2.29-2.45h9.98c0-.97.04-2.05-.04-3.66,0-.32-.04-.85-.97-.85h-8.57c-1.53,0-2.33-1.81-2.33-3.18s.97-3.14,2.33-3.14h12.63c1.17,0,2.9.93,3.22,2.82.28,2.05.28,8.85-.16,11.35-.24,1.21-1.17,2.98-2.94,2.98h-9.29c.04,1.01,0,2.49.04,3.98.04.68.44,1.13,1.37,1.29,1.01.2,1.81.28,3.14.28,2.41,0,4.39-.52,5.19-.93,1.25-.56,4.02-.16,4.51,2.17.36,1.69-1.05,3.34-1.93,3.7-2.01,1.01-5.23,1.49-7.93,1.49-3.34,0-6.04-.68-7.56-1.33-1.09-.52-2.62-1.57-3.06-3.34-.52-2.13-.28-9.5.08-11.19ZM67.63,36.1c-.24,1.61-1.93,2.94-3.66,2.78-1.97-.2-3.14-1.77-3.06-3.38.52-6.12.6-21.49,0-27.68-.24-1.69,1.33-3.3,2.94-3.46,1.85-.2,3.54,1.05,3.78,2.74.76,5.51.44,24.54,0,29.01Z"/>
  <path class="st0" d="M115.66,35.98c-2.86,0-5.39-.72-6.84-1.45-1.45-.76-2.29-2.29-2.54-3.78-.64-3.86-.44-18.23-.08-20.96.32-1.81,2.17-2.94,3.34-2.94h12.35c1.17,0,3.02,1.13,3.3,2.9.48,2.86.64,17.18,0,20.96-.16,1.21-.89,2.98-2.53,3.82-1.77.89-4.35,1.49-7,1.45ZM118,13.05h-4.47c-.85,0-.89.52-.93.8-.24,3.66-.36,11.07-.04,14.65.04.56.28.89.8,1.01.48.12,1.13.2,2.41.2.85,0,1.73-.04,2.21-.16.56-.16.8-.52.84-1.13.36-3.86.24-11.27,0-14.61,0-.28-.04-.76-.84-.76ZM135.3,22.86c-.04,5.71-.24,11.11-.44,13.24-.24,1.61-1.93,2.94-3.66,2.78-1.97-.2-3.14-1.77-3.06-3.38.52-6.12.6-21.49,0-27.68-.24-1.69,1.33-3.3,2.94-3.46,1.85-.2,3.54,1.05,3.78,2.74.24,1.93.4,5.43.44,9.42h2.58c1.41,0,2.58,1.61,2.58,3.18,0,1.37-.93,3.18-2.58,3.18h-2.58Z"/>
  <path class="st0" d="M183.3,34.45c-4.56,0-6.41-4.16-6.41-10.23s1.94-10.23,6.41-10.23,6.07,3.76,6.35,8.69h1.85c-.03-3.36-.12-6.5-.31-8.51-.09-.65.43-1.11,1.08-1.2.65-.06,1.33.31,1.42.99.59,4.13.34,18.25,0,21.57-.09.62-.77,1.05-1.39.99-.65-.03-1.14-.55-1.11-1.2.18-2.31.31-6.32.31-10.36h-1.79c-.15,5.79-2.13,9.49-6.41,9.49ZM183.27,16.33c-2.59,0-3.85,2.65-3.85,7.95,0,4.93,1.08,7.83,3.85,7.83s3.91-2.9,3.91-7.83-1.11-7.95-3.91-7.95ZM198.93,35.68c-.09.62-.77,1.05-1.39.99-.65-.03-1.14-.55-1.11-1.2.4-4.72.46-16.61,0-21.45-.09-.65.43-1.11,1.08-1.2.65-.06,1.33.31,1.42.99.59,4.13.34,18.55,0,21.88Z"/>
  <path class="st0" d="M25.02,66.89c.03.35.1.62.35.76,1.04.49,3.19.83,5.27.83,2.22,0,4.58-.52,5.48-.94.49-.21,1.53.07,1.73.9.17.69-.35,1.28-.83,1.49-1.56.76-4.33,1.11-6.55,1.11s-5.1-.45-6.24-.97c-.8-.38-1.59-.9-1.8-1.91-.52-2.77-.28-16.12.07-18.61.1-.62.76-1.11,1.59-.97.9.1,1.14.8,1.11,1.21-.21,2.25-.62,13.66-.17,17.09ZM44.5,59.85c-.03,5.37-.21,10.75-.38,12.69-.1.69-.87,1.18-1.56,1.11-.73-.03-1.28-.62-1.25-1.35.45-5.3.52-18.68,0-24.13-.1-.73.49-1.25,1.21-1.35.73-.07,1.49.35,1.59,1.11.24,1.84.38,5.44.38,9.36h3.29c.52,0,1.18.55,1.18,1.28,0,.62-.55,1.28-1.14,1.28h-3.33Z"/>
  <path class="st0" d="M48.17,62.38c.1-.76.76-1.25,1.46-1.14,5.48.52,18.06.62,23.47,0,.76-.1,1.46.45,1.49,1.14.07.69-.52,1.35-1.18,1.46-4.02.52-19.38.66-24.06,0-.73-.1-1.28-.76-1.18-1.46ZM54.06,71.4c0,.1.07.17.28.24,1.11.45,4.96.83,7.59.83,3.19,0,6.62-.45,8.98-1.21.49-.21,1.35.03,1.56.76.24.69-.1,1.39-.55,1.59-2.5,1.07-6.83,1.39-9.98,1.42-3.15,0-6.93-.28-8.74-1.01-.83-.31-1.63-.9-1.8-1.91-.28-1.84-.1-4.09.21-5.75.1-.55.83-1.07,1.59-.94.76.14,1.14.83,1.07,1.35-.28,1.52-.42,3.02-.21,4.61ZM54.2,54.27c.03.35.03.59.31.73,1.11.45,3.74.83,6.38.83,3.19,0,6.79-.45,9.15-1.21.52-.17,1.35.14,1.56.8.24.69-.1,1.39-.55,1.59-2.5,1.07-7.04,1.39-10.16,1.39s-5.72-.24-7.52-.97c-.83-.31-1.63-.9-1.8-1.91-.28-1.8-.1-6.48.21-8.15.1-.55.83-1.01,1.59-.94.76.14,1.14.83,1.07,1.25-.24,1.46-.38,4.82-.24,6.59Z"/>
  <path class="st0" d="M84.57,63.67c.1-.76.76-1.25,1.46-1.14,5.48.52,11.75.62,17.16,0,.76-.1,1.46.45,1.49,1.14.07.69-.52,1.35-1.18,1.46-1.77.24-4.54.38-7.45.42v7.31c0,.55-.69,1.14-1.46,1.14s-1.39-.55-1.39-1.14v-7.28c-2.81-.03-5.51-.17-7.45-.45-.73-.1-1.28-.76-1.18-1.46ZM86.85,57.22c-.31-1.32-.21-6.27.03-7.8.17-.97.94-1.7,1.84-1.7h11.75c.9,0,1.66.73,1.84,1.7.31,2.25.35,6.62.03,7.83-.28,1.01-.83,1.35-1.77,1.84-1.14.62-3.6,1.04-6,1.04-2.15,0-4.54-.31-5.96-1.01-.8-.42-1.53-.9-1.77-1.91ZM89.49,50.87c-.1,1.11-.17,3.74-.03,5.13.03.24.03.55.38.76.69.35,2.5.76,4.75.76,1.98,0,3.92-.31,4.78-.76.28-.17.35-.42.38-.69.17-1.35.07-3.95-.03-5.2-.03-.24-.1-.59-.52-.59h-9.15c-.45,0-.52.35-.55.59ZM110.46,72.54c-.1.69-.87,1.18-1.56,1.11-.73-.03-1.28-.62-1.25-1.35.24-2.67.35-7.38.35-12.1h-3.33c-.55,0-1.14-.66-1.14-1.28s.55-1.28,1.14-1.28h3.33c-.03-3.74-.14-7.24-.35-9.46-.1-.73.49-1.25,1.21-1.35.73-.07,1.49.35,1.59,1.11.66,4.65.38,20.87,0,24.61Z"/>
  <path class="st0" d="M126.23,50.7c1.46.59,2.5,2.08,2.5,3.92,0,4.26-3.99,6.24-7.9,6.24-4.23,0-7.9-2.15-7.9-6.24,0-1.91,1.28-3.5,2.43-3.92h-1.84c-.52,0-1.11-.66-1.11-1.28s.55-1.28,1.11-1.28h5.89v-1.63c0-.55.55-1.21,1.35-1.21s1.49.55,1.49,1.18v1.66h5.86c.52,0,1.18.55,1.18,1.28,0,.62-.55,1.28-1.18,1.28h-1.87ZM120.82,50.67c-2.53,0-5.1,1.14-5.1,3.88,0,2.29,1.77,3.74,5.1,3.74,2.88,0,5.1-1.21,5.1-3.74s-2.39-3.88-5.1-3.88ZM118.57,71.47c.03.14.1.21.28.28,1.11.45,5.65.73,8.6.73s6.21-.45,8.56-1.21c.52-.21,1.35.14,1.56.83.24.69-.1,1.32-.55,1.53-2.5,1.07-6.69,1.39-9.84,1.42-3.12,0-7.66-.17-9.46-.9-.87-.35-1.56-.9-1.8-1.91-.24-.97-.1-3.02.03-3.67.14-.52.62-1.28,1.35-1.28h16.99c.07-.28.14-.97.07-1.28-.03-.28-.21-.62-.69-.62h-16.22c-.52,0-1.14-.52-1.14-1.32,0-.62.55-1.25,1.14-1.25h17.71c.9,0,1.7.94,1.8,1.91.1,1.04.1,2.88-.14,3.78-.14.62-.73,1.35-1.8,1.35h-16.5c-.03.35-.07.97.07,1.63ZM136.94,52.78h2.84c.52,0,1.18.55,1.18,1.28,0,.62-.55,1.28-1.14,1.28h-2.88c-.03,1.66-.17,3.33-.28,4.82-.03.69-.87,1.18-1.56,1.11-.73-.03-1.28-.62-1.25-1.35.35-4.26.31-7.42,0-11.75-.03-.73.49-1.25,1.21-1.35.73-.07,1.49.35,1.59,1.11.17,1.56.28,3.19.28,4.85Z"/>
  <path class="st0" d="M149.42,52.09v1.28c0,7.49-2.7,13.8-7.45,16.33-.73.42-1.56,0-1.84-.73-.24-.66.17-1.32.66-1.66,4.33-2.88,5.86-7.94,5.86-14.07v-.42c0-.76-.03-1.28-1.66-1.28h-3.6c-.52,0-1.11-.66-1.11-1.28s.55-1.28,1.14-1.28h4.82c2.15,0,3.19,1.56,3.19,3.12ZM158.29,52.09v1.28c0,8.08-2.57,14.94-7.45,17.4-.73.38-1.56-.03-1.84-.76-.24-.66.17-1.39.66-1.66,4.71-2.81,5.86-9.26,5.86-15.11v-.42c0-.76-.03-1.28-1.66-1.28h-2.6c-.52,0-1.11-.66-1.11-1.28s.55-1.28,1.14-1.28h3.81c2.15,0,3.19,1.56,3.19,3.12ZM164.19,59.85c-.03,5.37-.17,10.75-.38,12.69-.1.69-.87,1.18-1.56,1.11-.73-.03-1.28-.62-1.25-1.35.45-5.3.52-18.68,0-24.13-.1-.73.49-1.25,1.21-1.35.73-.07,1.49.35,1.59,1.11.24,1.84.35,5.44.38,9.36h3.29c.52,0,1.18.55,1.18,1.28,0,.62-.55,1.28-1.14,1.28h-3.33Z"/>
  <path class="st0" d="M175.52,58.57c1.18-.59,1.77-.97,2.6-1.56,1.28-.9,2.53-2.22,2.53-3.81,0-2.32-1.56-3.81-4.51-3.81-2.22,0-4.02,1.28-5.27,3.05-.35.49-1.28.59-1.84.21-.55-.42-.66-1.28-.38-1.73,1.42-2.22,4.06-4.09,7.49-4.09,5.68,0,7.35,3.81,7.21,6.72-.14,2.77-2.01,4.58-3.95,5.96-.49.35-1.28.8-2.15,1.28-.69.35-.87.52-.83,1.07.03,1.18,0,1.94-.04,3.33,0,.76-.83,1.21-1.49,1.18-.73-.1-1.28-.59-1.28-1.28.03-1.46,0-2.05.03-3.71.04-1.14.66-2.18,1.87-2.81ZM175.17,73.51c-.73-.1-1.28-.59-1.28-1.14,0-.73,0-1.87-.03-2.53-.04-.73.66-1.32,1.35-1.32.76,0,1.42.52,1.46,1.18.07.76.03,1.77,0,2.67-.03.73-.83,1.18-1.49,1.14Z"/>
  <g>
    <path class="st0" d="M100.58,30.47c-6.16.72-20.6.6-26.84,0-1.45-.2-3.42.52-3.62,2.78s1.33,3.38,2.86,3.62c5.55.76,23.62.6,28.41,0,1.41-.24,3.02-1.25,2.86-3.5-.16-2.37-2.05-3.1-3.66-2.9Z"/>
    <path class="st0" d="M77.08,27.97c3.62-1.13,7.2-3.28,9.7-6.49l4.12,2.48,5.5,3.36c1.49.93,3.46.93,4.59-.72,1.25-1.81.48-3.74-.64-4.47l-5.96-3.74c-.1-.06-.22-.11-.33-.16l-4.46-2.43c.36-1.37.57-2.85.57-4.44v-3.14c0-1.61-1.65-2.41-3.54-2.41s-3.22,1.29-3.22,2.41v2.45c0,6.72-3.22,9.29-8.45,11.19-1.73.6-2.53,2.25-2.01,3.98.64,2.09,2.7,2.5,4.14,2.13Z"/>
  </g>
  <g>
    <path class="st0" d="M146.48,27.97c3.67-1.14,7.3-3.33,9.8-6.62l3.27,2.1h.01c.1.09.2.18.31.25l5.91,3.62c1.49.93,3.46.93,4.59-.72,1.25-1.81.48-3.74-.64-4.47l-5.41-3.4h0c-1.22-.85-3.95-2.28-5.33-2.99.35-1.36.56-2.82.56-4.39v-3.14c0-1.61-1.65-2.41-3.54-2.41s-3.22,1.29-3.22,2.41v2.45c0,6.72-3.22,9.29-8.45,11.19-1.73.6-2.53,2.25-2.01,3.98.64,2.09,2.7,2.5,4.14,2.13Z"/>
    <path class="st0" d="M169.98,30.47c-6.16.72-20.6.6-26.84,0-1.45-.2-3.42.52-3.62,2.78s1.33,3.38,2.86,3.62c5.55.76,23.62.6,28.41,0,1.41-.24,3.02-1.25,2.86-3.5-.16-2.37-2.05-3.1-3.66-2.9Z"/>
  </g>
  <path class="st0" d="M2.32,33.25c.2-2.25,2.17-2.98,3.62-2.78,6.24.6,20.68.72,26.84,0,1.61-.2,3.5.52,3.66,2.9.16,2.25-1.45,3.26-2.86,3.5-4.79.6-22.85.76-28.41,0-1.53-.24-3.06-1.37-2.86-3.62ZM8.2,23.23c-1.33,0-2.62-1.29-2.58-3.18-.04-1.73,1.37-3.14,2.58-3.14h13.36c1.25,0,2.66,1.17,2.7,3.14-.04,1.61-1.09,3.18-2.7,3.18h-13.36ZM27.63,28.66c-1.77-.4-2.94-1.77-2.7-3.42.44-3.06.72-7.89.64-11.31,0-.4-.04-1.13-1.29-1.13h-15.97c-1.57,0-2.53-1.81-2.53-3.18,0-1.57,1.41-3.18,2.53-3.18h20.28c1.09,0,3.1.88,3.38,2.82.52,3.62.36,13.68-.52,17.18-.4,1.61-2.17,2.58-3.82,2.21Z"/>
</svg>