<?xml version="1.0" encoding="UTF-8"?>
<svg id="Layer_1" xmlns="http://www.w3.org/2000/svg" version="1.1" viewBox="0 0 305.29 246.68">
  <!-- Generator: Adobe Illustrator 29.1.0, SVG Export Plug-In . SVG Version: 2.1.0 Build 142)  -->
  <defs>
    <style>
      .st0 {
        fill: #ee322f;
      }

      .st1 {
        fill: #08323f;
      }

      .st2 {
        fill: #fffcec;
      }

      .st3 {
        fill: #fcb316;
      }

      .st4 {
        fill: #065d48;
      }

      .st5 {
        fill: #0e804a;
      }
    </style>
  </defs>
  <g>
    <g>
      <path class="st4" d="M-61.97,234.51c11.45-11.97,21.39-28.84,30.71-42.66,6.48-11.67,17.93-15.56,27.56-12.12.65-1.15,34.8,11.06,59.02,2.61,5.93-1.77,18.75-7.08,23.39-.3,8.59,12.53,21.82,38.47,31.06,50.54,2.45,3.2,7.31,7.03,7.4,11.43-1.93,14.12-29.51,7.63-33.73-1.73,4.22,23.22-14.5,27.01-26.05,7.32-3.42,30.68-30.87,26.75-30.42-1.68.47,6.31-11.25,19.33-20.11,16.97-4.97-1.32-10.9-12.72-9.03-18.34-10.98,14.37-40.37,19.89-34.32-7.19-5.71,5.45-36.11,10.76-25.48-4.83Z"/>
      <path class="st5" d="M-45.92,196.22c7.52-12.69,16.03-22.76,21.7-34.66,2.82-5.92,7.87-10.72,9.29-17.23.09-.42.58-.8,1.03-.66,23.18,7.39,47.96,6.39,71.84,3.62,6.8-.78,13.58-1.71,20.35-2.65,1.7.27,1.88,5.57,2.76,7.13.15.51-.15.9-.54,1.06-.52.23,22.1,38.86,23.03,40.69,3.67,7.21-1.24,13.74-9.11,12.1-7.87-1.65-16.25-7.15-20.57-13.96,8.89,28.3-22.99,23.16-27.58,4.81-3.86,18.11-27.68,20.91-32.59,4.59-9.6,9.67-35.86,13.59-30.95-10.86-8.72,21.35-32.74,12.88-28.68,6.03Z"/>
      <path class="st4" d="M-37.56,148.98c13.28-14.43,23.56-27.37,31.86-45.24-.09-.99,11.86,2.1,29.78,4.96,11.33,1.8,42.83-7.08,46.89-.66,7.72,12.19,15.67,24.27,24.83,35.58,2.31,2.86,6.1,6.18,6,10.21-.16,6.61-10.56,7.67-15.19,6.79-3.58-.68-15.64-5.3-16.27-9.78,2.98,21.49-14.68,24.18-24.66,5.63-1.99,9.59-6.21,20.1-16.32,18.83-11.06-1.39-11.81-13.6-12.05-21.64.18,5.81-11.32,17.28-19.51,14.74-5.12-1.59-10.84-14.74-6.7-18.73-13.17,12.69-33.93,5.12-28.66-.68Z"/>
      <path class="st5" d="M-18.3,105.68c5.42-7.44,12.78-13.12,18.17-20.6,9.92-13.76,21.49-27.33,28.32-42.87,3.08-7.02,3.51-13.86,6.85-13.86,5.22,0,8.33,9.36,10.22,14.35,4.49,11.88,13.42,24.04,20.78,34.4,3.39,4.76,7.07,9.31,11.06,13.59,3.65,3.92,8.42,7.3,10.99,12.08,2.36,4.4,2.28,9.15-2.61,11.1-2.91,1.16-5.93,1.38-8.89.92.01.38.02.75.03,1.13.01,1.8.07,3.77-.51,5.5-1.17,3.5-4.9,4.72-8.29,4.19-4.15-.64-7.91-2.98-10.85-6.04-2.41,4.2-5.91,7.43-10.14,7.38-6.19-1.02-9.68-7.84-11.13-13.35-4.88,18.79-23.06,18.2-19.33-3.09-7.23,16.42-26.99,14.03-19.74,2.12-3.48,3.28-20.84,1.16-14.94-6.94Z"/>
    </g>
    <g>
      <path class="st3" d="M-6.29,92.65c-.04-.18-.02-.35.07-.52.8-1.54,3.57,1.91,4.39,2.42,2.68,1.68,6.18,2.42,9.19,1.4-1.35-1.57-2.28-3.68-2.13-5.75.1-1.29.69-2.59,1.89-3.2.93-.47,2.06-.47,3.03-.12,2.09.73,3.63,2.68,3.36,4.95-.23,1.88-1.37,3.4-2.85,4.5.53.34,1.09.63,1.66.87,2.79,1.16,6.03,1.24,8.84.17-1.54-1.8-2.75-3.89-3.05-6.28-.31-2.42.72-5.14,3.27-5.84,2.27-.62,4.61.73,5.93,2.52,1.53,2.07,1.41,4.73.13,6.9-.79,1.34-1.87,2.41-3.12,3.23,2.55,2.23,5.75,3.72,9.08,4.27,4.23.7,9.18-.23,12.13-3.56.2-.23.38-.47.55-.72-2.54-2.16-4.39-5.04-4.77-8.37-.09-.83-.05-1.63.07-2.46.06-.4.54-.7.91-.69,4.9.02,7.86,5.73,6.57,10.08-.09.31-.2.62-.33.91,1.39.97,2.92,1.73,4.54,2.23,2.72.83,5.8.91,8.38-.41.76-.39,1.48-.89,2.11-1.47-.23-.1-.46-.2-.69-.32-2.69-1.4-4.83-4.02-5.53-6.98-.34-1.42-.55-3.43.3-4.72.93-1.42,2.9-1.48,4.4-1.14,2.92.67,5.22,3.36,5.8,6.24.41,2.03-.02,4.07-1.01,5.82,1.08.12,2.18.06,3.26-.2,1.97-.47,3.8-1.48,5.25-2.88.39-.37,1.54-2.32,1.97-2.37,2.5-.3.24,2.79-.28,3.33-1.41,1.46-3.13,2.6-5.04,3.31-2.05.77-4.29.97-6.41.53-.23.25-.46.5-.71.73-2.49,2.3-5.87,3.28-9.22,2.95-2.77-.27-5.63-1.33-8.07-2.98-2.43,3.47-7.15,5.16-11.27,5.22-5.05.07-10.1-1.96-13.76-5.42-2.63,1.15-5.7,1.42-8.44.87-1.88-.38-3.71-1.16-5.24-2.34-.16.07-.31.14-.47.2-2.28.92-4.88.95-7.25.33-2.03-.53-4.4-2.17-5.98-3.52-.41-.35-1.34-1.04-1.48-1.73ZM64.89,96.18c.53-.79.92-1.66,1.12-2.61.49-2.33-.58-4.85-2.48-6.26-.95-.7-2.15-1.15-3.35-1.02-.58.06-.99.27-1.12.87-.14.62-.12,1.31-.04,1.94.29,2.43,1.8,4.69,3.8,6.05.65.44,1.35.78,2.07,1.03ZM46.97,96.1c.28-.87.38-1.79.24-2.74-.25-1.71-1.16-3.48-2.64-4.43-.45-.29-.93-.48-1.43-.58-.06,2.43,1.11,4.8,2.69,6.6.36.4.74.78,1.14,1.15ZM22.9,96.51c.3-.18.6-.38.88-.59,1.56-1.19,3.05-3.17,2.76-5.25-.23-1.64-1.64-3.12-3.21-3.56-1.71-.47-3.13.72-3.37,2.42-.29,2.07.76,4.17,1.95,5.78.31.42.64.82.99,1.2ZM9.13,95.1c.17-.11.33-.22.49-.34,1.33-1.01,2.7-3,1.71-4.68-.64-1.08-2.39-2.05-3.46-1.33-1.6,1.07-.51,3.9.31,5.18.27.42.59.81.95,1.17Z"/>
      <path class="st3" d="M-36.03,179.3c-.62-2.6,2.26-.44,3.17.14,1.48.95,3.07,1.73,4.72,2.33,3.39,1.23,7.08,1.67,10.64,1.08-1.06-1.75-1.65-3.78-1.14-5.79.59-2.33,2.86-4.37,5.32-4.36,2.61,0,4.29,2.35,4.31,4.8.03,3.43-2.32,5.4-5.23,6.44,3.06,3.07,7.44,4.69,11.73,4.78,2.6.06,5.36-.43,7.8-1.53-.3-.39-.58-.8-.82-1.23-1.19-2.16-1.42-4.9-.36-7.16,1.14-2.43,4.34-4.14,6.79-2.46,2.24,1.53,2.7,4.5,1.64,6.87-.83,1.84-2.39,3.3-4.12,4.41,1.11.87,2.39,1.55,3.66,2.11,4.35,1.9,9.46,2.96,14.19,2.09,1.99-.37,4-1.08,5.68-2.25-1.04-.69-1.98-1.52-2.68-2.55-1.39-2.03-1.49-5.2.46-6.94,2.09-1.87,5.03-.88,6.55,1.19,1.73,2.37.96,5.39-.74,7.54-.1.13-.22.25-.33.38.98.43,2,.77,2.99,1.05,2.45.69,4.99.96,7.53.83,3.93-.2,8.47-1.41,11.61-4.05-.08-.04-.16-.08-.24-.13-2.23-1.28-4.35-3.46-4.72-6.11-.34-2.39,1.21-4.68,3.68-4.9,2.12-.19,4.25,1.15,5.39,2.87,1.43,2.17.89,5-.48,7.07-.13.2-.28.39-.43.58,3.59,1.3,7.64,1.27,11.26.13,2.05-.65,4.01-1.69,5.65-3.09.05-.04.09-.08.14-.12-.47-.22-.92-.47-1.36-.77-2.05-1.45-3.15-3.69-2.61-6.19.45-2.11,2.1-4.09,4.37-4.21,2.7-.14,4.63,2.44,4.86,4.91.18,1.9-.59,3.69-1.72,5.23,1.39.14,2.8.02,4.16-.3,1.83-.44,3.44-1.41,4.93-2.53,1.08-.81,1.94-2.23,3.15-2.82,1.94-.95,1.63.94.72,2.27-.75,1.08-1.89,1.9-2.98,2.61-3.16,2.06-7.61,3.36-11.48,2.51-.15.15-.31.3-.46.44-3.9,3.54-9.37,5.22-14.6,4.73-1.85-.17-3.67-.6-5.38-1.3-1.36,1.26-2.99,2.25-4.68,2.99-5.67,2.49-12.26,2.8-18.12.76-.86-.3-1.74-.65-2.6-1.06-3.79,3.1-9.34,3.8-14.04,3.2-2.97-.38-5.86-1.22-8.6-2.42-1.58-.69-3.16-1.59-4.47-2.75-.06.03-.12.06-.17.09-4.8,2.31-10.58,2.54-15.57.67-2.51-.94-4.87-2.38-6.73-4.34-.16-.17-.31-.34-.46-.52-1.67.35-3.38.47-4.83.44-2.78-.07-5.54-.63-8.14-1.62-1.86-.71-6.13-1.61-6.74-3.92-.01-.04-.02-.08-.03-.12ZM79.04,181.87c1.1-1.26,1.94-2.76,1.91-4.43-.04-1.67-1.42-3.8-3.33-3.33-1.58.39-2.35,2.33-2.29,3.79.08,1.98,1.91,3.36,3.64,3.94.02,0,.04.01.07.02ZM58.9,185.43c1.17-1.46,2.05-3.67,1.04-5.44-.73-1.28-2.32-2.37-3.85-2.21-1.9.2-2.2,2.36-1.58,3.82.8,1.87,2.43,3.14,4.2,4.04.06-.07.13-.14.19-.21ZM35.12,183.07c-.66-1.58-2.92-3.02-4.31-1.41-1.4,1.62-.53,3.94.81,5.25.54.53,1.17.98,1.83,1.39,1.34-1.38,2.46-3.35,1.67-5.23ZM6.35,185.43c.2.31.42.6.66.87.96-.59,1.84-1.29,2.61-2.12,1.42-1.52,2.28-3.81.89-5.64-1.45-1.92-3.95-.61-4.77,1.22-.8,1.81-.44,4.03.61,5.66ZM-15.54,182.42c1.78-.53,3.62-1.49,4.33-3.26.6-1.5.38-3.8-1.35-4.44-1.78-.66-3.72,1.04-4.21,2.67-.52,1.74.19,3.55,1.23,5.03Z"/>
      <path class="st3" d="M43.14,62.91c0,1.95-1.58,3.53-3.53,3.53s-3.53-1.58-3.53-3.53,1.58-3.53,3.53-3.53,3.53,1.58,3.53,3.53Z"/>
      <path class="st3" d="M7.05,137.45c0,1.95-1.58,3.53-3.53,3.53s-3.53-1.58-3.53-3.53,1.58-3.53,3.53-3.53,3.53,1.58,3.53,3.53Z"/>
      <path class="st3" d="M57.75,142.22c0,1.71-1.39,3.1-3.1,3.1s-3.1-1.39-3.1-3.1,1.39-3.1,3.1-3.1,3.1,1.39,3.1,3.1Z"/>
      <path class="st3" d="M-14.88,239.3c0,1.71-1.39,3.1-3.1,3.1s-3.1-1.39-3.1-3.1,1.39-3.1,3.1-3.1,3.1,1.39,3.1,3.1Z"/>
      <path class="st3" d="M75.33,237.4c0,1.71-1.39,3.1-3.1,3.1s-3.1-1.39-3.1-3.1,1.39-3.1,3.1-3.1,3.1,1.39,3.1,3.1Z"/>
      <path class="st3" d="M30.01,226.08c0,1.95-1.58,3.53-3.53,3.53s-3.53-1.58-3.53-3.53,1.58-3.53,3.53-3.53,3.53,1.58,3.53,3.53Z"/>
      <path class="st3" d="M30.32,37.45c2.59-2.12,4.81-4.6,6.74-7.33,11.61,14.66,12.88,13.17,9.25-4.48,2.5-1.53,5.22-3.21,6.7-5.82,1.15-2.93-.9-3.14-3.22-3.33-2.68-.2-5.38-.25-8.06.01-5-16.14-4.73-18.54-11.03-.81-3.45.03-8.59-2.29-11.6-.51-1.85,4.19,6.09,8.25,8.3,11.16,0,.06,0,.12,0,.19-1.31,2.91-4.05,17.14,2.93,10.94Z"/>
    </g>
  </g>
  <g>
    <g>
      <path class="st5" d="M180.02,198.5c-.04.65.04,1.38.09,1.98,0,.26.03.49.03.7.03,3.63.08,7.26.14,10.88v.15c0,.11,0,.24,0,.35,0,.54.02,1.08.03,1.61,0,.12,0,.24,0,.36.08,4.1.17,8.21.23,12.3,0,.11,0,.2,0,.31,0,.34,0,.69.02,1.02,0,.32,0,.64,0,.94.04,1.73.05,3.45.07,5.18.03,2.59-.07,5.23-.09,7.85,0,.67,0,1.34,0,2.01,0,.84.04,1.68.08,2.51.11,2.02-.03,4.16-.08,6.28-.02.7-.03,1.39,0,2.07,0,.04,0,.08,0,.12,0,.05,0,.11,0,.17,0,.02,0,.03,0,.04.04,1.2.17,2.37.44,3.48.84,1.96,3.62,1.52,5.32,1.64.72,0,1.45,0,2.16,0,.97,0,1.94,0,2.92,0h0c.45,0,.9,0,1.35,0,1.06,0,2.11,0,3.16.02,4.23.03,8.47.06,12.7.1h.34c1,0,1.99.02,2.99.02h.71c2.05.02,4.08.02,6.14.02,2.19-.19,4.59.6,6.25-1.34,0-.73-.02-1.46-.03-2.19,0-.72-.02-1.45-.02-2.17,0-.41,0-.8,0-1.21,0-.54,0-1.08,0-1.61-.02-3.64,0-7.29.02-10.95v-.63c0-.27,0-.55,0-.81,0-.43,0-.87,0-1.3.04-4.19.08-8.38.11-12.57v-.45c0-.22,0-.45,0-.68,0-.47,0-.94,0-1.4.03-4.06.04-8.11,0-12.15,0-.35,0-.71,0-1.06,0-.24,0-.47,0-.7,0-.41,0-.81,0-1.22-.04-3.63-.11-7.24-.22-10.85-.03-.05-.03-.12,0-.17-.05-.09-.11-.17-.18-.26,0,0,0,0,0,0-.02-.03-.04-.05-.05-.08-.19-.23-1.91-.04-2.24-.05-.88-.03-1.76-.05-2.65-.08-1.7-.05-3.4-.11-5.1-.16-3.4-.11-6.79-.2-10.2-.26-1.6-.03-3.19-.04-4.8-.05h-1.91c-1.29,0-2.58,0-3.86.04-3.27.05-6.54.18-9.79.4-1.06.08-2.51-.34-3.48.18-.48.26-.64.89-.67,1.63Z"/>
      <path class="st3" d="M180.11,200.48c-.05-.6-.12-1.32-.09-1.98,3.33,1.57,6.63,3.19,9.92,4.86,2.19-1.98,4.38-3.95,6.58-5.92-.86-.39-1.7-.76-2.56-1.15,1.29-.03,2.58-.04,3.86-.04.15-.13.3-.26.45-.4.56-.5,1.28-.13,1.46.4.08.21.06.45-.08.66,4,1.81,8.02,3.6,12.03,5.38,2.44-1.78,4.9-3.55,7.37-5.3.93-.66,1.81.87.89,1.52-2.15,1.52-4.28,3.05-6.4,4.6,3.87,1.71,7.74,3.41,11.63,5.11,0,.41,0,.81,0,1.22.64.18,1,1.17.25,1.61-.08.04-.15.09-.23.14-3.33,1.96-6.62,3.99-9.87,6.09.52.31,1.04.61,1.55.92,2.79,1.68,5.57,3.4,8.31,5.14,0,.47,0,.93,0,1.4.24.32.29.79,0,1.13-.05.06-.12.11-.2.17-3.19,2.03-6.39,4.07-9.58,6.11.22.14.44.27.66.41,3.03,1.91,6.03,3.87,9.01,5.87,0,.42,0,.86,0,1.3.4.34.52,1.04,0,1.44-.02.02-.04.04-.05.04-3.31,2.2-6.62,4.4-9.94,6.6.12.09.24.17.36.25,2.4,1.65,4.76,3.34,7.13,5.05.56-.32,1.12-.64,1.68-.96.29-.17.57-.16.8-.04.54.28.78,1.16.09,1.56-.03.02-.06.04-.09.05-.31.18-.62.34-.93.53.31.23.63.45.94.68,0,.72,0,1.45.02,2.17-.86-.64-1.74-1.27-2.61-1.91-3.23,1.84-6.48,3.65-9.76,5.42h-.71c-1,0-1.99,0-2.99-.02h-.34c-2.21-1.38-4.45-2.73-6.69-4.08l-6.01,3.99c-1.05,0-2.1-.02-3.16-.02,2.5-1.66,5-3.33,7.51-4.98-3.37-2.03-6.76-4.02-10.16-5.98-2.27,1.71-4.5,3.46-6.7,5.26,2.73,1.8,5.39,3.7,8,5.7-.98,0-1.95-.02-2.92,0-2.14-1.59-4.33-3.09-6.56-4.54-.57.33-1.23-.07-1.36-.58,0-.02,0-.03,0-.04,0-.05,0-.11,0-.17,0-.04,0-.08,0-.11,0,0,0,0-.02,0-.03-.68-.02-1.38,0-2.07.44.27.86.56,1.31.84,2.17-1.77,4.37-3.5,6.61-5.2-2.62-1.5-5.26-2.98-7.91-4.44-.02-.67-.02-1.34,0-2.01.15.08.3.17.46.26-.36-.31-.5-.84-.05-1.23,2.78-2.47,5.62-4.87,8.49-7.22-2.34-1.31-4.68-2.61-7.06-3.87-.61-.33-1.22-.64-1.83-.95,0-.31,0-.63,0-.94-.41-.29-.59-.85-.11-1.26.03-.03.05-.04.08-.07,2.99-2.54,6.02-5.05,9.07-7.53-2.43-1.29-4.88-2.57-7.34-3.8-.65-.33-1.31-.65-1.96-.97,0-.12,0-.24,0-.36,0-.54-.02-1.08-.03-1.61,0-.11,0-.24,0-.35v-.15c2.76-2.48,5.5-4.96,8.26-7.44-.77-.39-1.53-.79-2.29-1.16-2.04-1.01-4.08-2-6.14-2.98ZM198.28,198.23c-2.21,1.99-4.44,3.99-6.65,5.99,3.44,1.76,6.86,3.57,10.26,5.42,2.71-2.07,5.43-4.13,8.18-6.15-3.93-1.74-7.86-3.5-11.78-5.27ZM211.99,217.37c-3.28-1.92-6.6-3.8-9.94-5.64-3.1,2.39-6.19,4.82-9.24,7.28,3.13,1.68,6.24,3.4,9.33,5.18,3.24-2.34,6.53-4.61,9.85-6.82ZM192.56,233.71c3.06,1.76,6.1,3.55,9.11,5.41,3.45-2.36,6.93-4.65,10.44-6.92-3.26-2.02-6.56-3.97-9.89-5.89-3.27,2.4-6.5,4.86-9.67,7.41ZM224.24,209.72c-4.11-1.79-8.21-3.6-12.31-5.41-2.81,2.06-5.58,4.14-8.34,6.24,3.38,1.87,6.74,3.77,10.06,5.72.26-.17.5-.34.76-.5,3.24-2.09,6.52-4.1,9.83-6.06ZM223.92,224.64c-3.38-2.14-6.8-4.22-10.24-6.27-3.34,2.2-6.64,4.45-9.89,6.78,3.35,1.95,6.67,3.93,9.96,5.98,3.38-2.18,6.77-4.34,10.17-6.49ZM223.94,239.82c-3.36-2.25-6.76-4.45-10.18-6.6-3.51,2.27-7,4.56-10.46,6.92,3.43,2.14,6.82,4.36,10.17,6.63,3.49-2.32,6.98-4.63,10.47-6.95ZM210.59,259.77c3.46-1.85,6.89-3.75,10.3-5.69-2.44-1.76-4.9-3.51-7.39-5.21-3.31,2.2-6.61,4.38-9.91,6.58,2.35,1.42,4.68,2.87,6.99,4.32ZM201.93,254.43c3.33-2.21,6.65-4.42,9.97-6.62-3.35-2.26-6.74-4.46-10.17-6.6-3.4,2.33-6.76,4.72-10.06,7.18,3.44,1.98,6.86,4,10.27,6.04ZM182.22,242.41c-.27.25-.58.26-.86.18,2.89,1.59,5.78,3.21,8.65,4.85,3.32-2.48,6.69-4.89,10.09-7.23-2.97-1.83-5.97-3.61-9-5.34-3.02,2.45-5.98,4.97-8.89,7.54ZM182.01,227.92c3,1.58,5.97,3.19,8.92,4.86,3.16-2.55,6.37-5.03,9.63-7.44-3.06-1.75-6.14-3.47-9.25-5.13-3.12,2.53-6.23,5.11-9.3,7.71ZM181.61,213.22c3.19,1.59,6.37,3.21,9.52,4.88,3.05-2.46,6.14-4.9,9.24-7.29-3.35-1.83-6.74-3.6-10.14-5.33-2.88,2.58-5.74,5.16-8.62,7.74Z"/>
      <path class="st0" d="M179.55,213.79c7.19.06,14.37.13,21.56.22.02-1.4.03-2.79.05-4.19.04-4.27.06-8.54.07-12.81-1.87,3.2-3.98,7.72-8.43,6.57-.97-.25-.56-1.76.42-1.51,3.2.83,4.94-2.61,6.32-5.19-4.18.11-8.34-2.73-9.41-6.88-.56-2.17-.14-5.12,2.3-5.9,2.63-.83,5.33,1.46,6.92,3.29.76.87,1.4,1.81,1.93,2.81.13-1.12.34-2.24.65-3.34.62-2.19,1.75-5.73,3.94-6.85,2-1.03,5.11.14,6.39,1.85,2.07,2.75,0,7.32-1.86,9.61-1.78,2.2-4.21,3.77-6.65,5.18.82,3.45,3.5,6.15,6.94,7,.98.24.56,1.75-.42,1.51-3.38-.84-6.17-3.28-7.49-6.44-.01,5.11-.05,10.21-.11,15.32,7.67.1,15.35.22,23.02.36,1,.02,1.01,1.58,0,1.56-7.68-.14-15.36-.26-23.04-.36-.11,8.92-.3,17.83-.55,26.74-.13,4.38-.28,14.04-.44,18.41-.04,1-1.6,1.01-1.56,0,.49-13.29.83-31.87,1-45.18-7.18-.09-14.36-.17-21.54-.22-1,0-1.01-1.57,0-1.56ZM201.25,194.88c-.42-2.41-1.5-4.7-3.13-6.53-1.39-1.56-5.59-4.87-6.56-1.17-.6,2.29.83,4.76,2.52,6.2,1.83,1.56,4.31,2.3,6.67,1.78.19-.04.38,0,.54.07-.01-.12-.03-.24-.04-.36ZM202.79,194.68c.04.22.07.44.1.66,2.12-1.22,4.22-2.55,5.88-4.36,1.25-1.36,2.06-3.06,2.49-4.86.4-1.66.24-3.26-1.28-4.19-1.04-.64-2.85-1.17-3.87-.21-1.14,1.08-1.85,3.04-2.35,4.49-.94,2.72-1.27,5.62-.98,8.48Z"/>
    </g>
    <g>
      <path class="st0" d="M212.76,218.97c19.12,0,36.59-.41,55.71-.41h23.93c2.71,0,5.42-.05,8.13-.05,3.27,0,1.81,10.21,1.66,12.24-.2,2.64-5.24,2.34-5.22,2.55.49,6.66.68,14.42.24,21.08-.26,3.98-1.73,6.2-5.84,6.39-3.55.16-7.11.2-10.66.22-7.63.04-15.26-.08-22.9-.11-7.59-.03-15.16.48-22.75.61-3.85.06-7.71.03-11.55-.21-3.1-.2-7.13-.56-7.65-4.23-.37-2.63-.23-5.42-.25-8.07-.03-5-.23-10.2.36-15.18-2.5.34-4.26-.73-4.56-3.1-.32-2.54-1.24-11.71,1.35-11.71Z"/>
      <path class="st1" d="M216.62,233.57c10.41-.19,20.82-.33,31.24-.43,10.38-.1,20.75-.15,31.13-.17,5.86,0,11.72,0,17.58.02.87,0,.87,1.02,0,1.02-10.41-.04-20.83-.03-31.24.02-10.38.05-20.75.14-31.13.28-5.86.08-11.72.17-17.58.27-.87.02-.87-1,0-1.02Z"/>
      <g>
        <path class="st2" d="M280.86,250.98c.58.05,1.17.1,1.75.15-.34-.33-.68-.66-1.02-.99-.42-.41.22-1.06.65-.65.42.41.85.83,1.27,1.24-.05-.77-.1-1.54-.18-2.31-.02-.25.23-.46.46-.46.27,0,.43.21.46.46.08.8.13,1.6.18,2.41.3-.31.62-.6.94-.89.44-.39,1.09.26.65.65-.28.25-.55.5-.82.77.71.06,1.42.12,2.13.18.58.05.59.96,0,.91-.75-.06-1.51-.13-2.26-.19.68.66,1.36,1.33,2.04,1.99.42.41-.22,1.06-.65.65-.64-.63-1.28-1.25-1.93-1.88.03.98.06,1.95.05,2.93,0,.59-.92.59-.91,0,0-.94-.02-1.88-.05-2.83-.51.65-.98,1.34-1.4,2.06-.3.51-1.09.05-.79-.46.53-.92,1.15-1.8,1.83-2.61-.8-.07-1.61-.13-2.41-.2-.58-.05-.59-.96,0-.91Z"/>
        <path class="st2" d="M229.46,250.98c.58.05,1.17.1,1.75.15-.34-.33-.68-.66-1.02-.99-.42-.41.22-1.06.65-.65.42.41.85.83,1.27,1.24-.05-.77-.1-1.54-.18-2.31-.02-.25.23-.46.46-.46.27,0,.43.21.46.46.08.8.13,1.6.18,2.41.3-.31.62-.6.94-.89.44-.39,1.09.26.65.65-.28.25-.55.5-.82.77.71.06,1.42.12,2.13.18.58.05.59.96,0,.91-.75-.06-1.51-.13-2.26-.19.68.66,1.36,1.33,2.04,1.99.42.41-.22,1.06-.65.65-.64-.63-1.28-1.25-1.93-1.88.03.98.06,1.95.05,2.93,0,.59-.92.59-.91,0,0-.94-.02-1.88-.05-2.83-.51.65-.98,1.34-1.4,2.06-.3.51-1.09.05-.79-.46.53-.92,1.15-1.8,1.83-2.61l-2.41-.2c-.58-.05-.59-.96,0-.91Z"/>
        <path class="st2" d="M264.44,253.49c-.1-.62.31-1.2.93-1.31s1.2.31,1.31.93c.1.62-.31,1.2-.93,1.31-.62.1-1.2-.31-1.31-.93Z"/>
        <path class="st2" d="M289.84,239.52c-.1-.62.31-1.2.93-1.31.62-.1,1.2.31,1.31.93s-.31,1.2-.93,1.31c-.62.1-1.2-.31-1.31-.93Z"/>
        <path class="st2" d="M225.72,240.56c-.1-.62.31-1.2.93-1.31.62-.1,1.2.31,1.31.93.1.62-.31,1.2-.93,1.31s-1.2-.31-1.31-.93Z"/>
        <path class="st2" d="M241.66,244.7c-.1-.62.31-1.2.93-1.31.62-.1,1.2.31,1.31.93s-.31,1.2-.93,1.31c-.62.1-1.2-.31-1.31-.93Z"/>
        <path class="st2" d="M248.19,238.88c.24-.34.72-.42,1.07-.18.34.24.42.72.18,1.07-.24.34-.72.42-1.07.18-.34-.24-.42-.72-.18-1.07Z"/>
        <path class="st2" d="M245.2,226.55c.24-.34.72-.42,1.07-.18.34.24.42.72.18,1.07-.24.34-.72.42-1.07.18-.34-.24-.42-.72-.18-1.07Z"/>
        <path class="st2" d="M249.24,254.86c.24-.34.72-.42,1.07-.18.34.24.42.72.18,1.07-.24.34-.72.42-1.07.18-.34-.24-.42-.72-.18-1.07Z"/>
        <path class="st2" d="M216.74,227.44c.24-.34.72-.42,1.07-.18.34.24.42.72.18,1.07-.24.34-.72.42-1.07.18-.34-.24-.42-.72-.18-1.07Z"/>
        <path class="st2" d="M291.96,222.98c.24-.34.72-.42,1.07-.18.34.24.42.72.18,1.07-.24.34-.72.42-1.07.18-.34-.24-.42-.72-.18-1.07Z"/>
        <path class="st2" d="M263.54,222.35c.24-.34.72-.42,1.07-.18.34.24.42.72.18,1.07-.24.34-.72.42-1.07.18-.34-.24-.42-.72-.18-1.07Z"/>
        <path class="st2" d="M276.97,244.06c.24-.34.72-.42,1.07-.18.34.24.42.72.18,1.07-.24.34-.72.42-1.07.18-.34-.24-.42-.72-.18-1.07Z"/>
        <path class="st2" d="M220.98,250.59c.24-.34.72-.42,1.07-.18.34.24.42.72.18,1.07-.24.34-.72.42-1.07.18-.34-.24-.42-.72-.18-1.07Z"/>
        <path class="st2" d="M229.97,224.12c-.1-.62.31-1.2.93-1.31.62-.1,1.2.31,1.31.93.1.62-.31,1.2-.93,1.31-.62.1-1.2-.31-1.31-.93Z"/>
        <path class="st2" d="M278.17,227.63c-.1-.62.31-1.2.93-1.31.62-.1,1.2.31,1.31.93s-.31,1.2-.93,1.31c-.62.1-1.2-.31-1.31-.93Z"/>
        <path class="st2" d="M260.88,240.68c.64.07,1.29.12,1.94.15-.38-.28-.76-.57-1.13-.86-.15-.11-.12-.36,0-.48.14-.14.34-.11.48,0,.51.4,1.02.78,1.54,1.16-.04-1.06-.11-2.12-.19-3.19-.04-.44.65-.44.68,0,.08,1.04.14,2.09.19,3.13.21-.39.4-.79.56-1.19.07-.17.23-.29.42-.24.16.04.31.25.24.42-.18.44-.38.87-.6,1.28.81-.02,1.63-.06,2.44-.14.18-.02.34.17.34.34,0,.2-.16.32-.34.34-.81.08-1.63.12-2.45.14.37.25.74.49,1.11.73.37.24.03.83-.34.59-.45-.29-.89-.58-1.33-.88.03,1.14.04,2.29.02,3.44,0,.44-.69.44-.68,0,.01-.87.01-1.75,0-2.62-.39.52-.82,1.02-1.29,1.49-.31.31-.79-.17-.48-.48.65-.65,1.24-1.37,1.75-2.15,0-.04,0-.08,0-.12-.96-.02-1.91-.08-2.87-.18-.18-.02-.34-.14-.34-.34,0-.17.16-.36.34-.34Z"/>
      </g>
      <path class="st5" d="M257.04,218.84v41.51c0,1.53-1.99,1.53-1.99,0v-41.51c0-1.53,1.99-1.53,1.99,0Z"/>
      <path class="st5" d="M232.96,211.04c1.68,1.72,3.72,2.99,6,3.66,2.58.76,5.19.5,7.83.33.2-.01.41-.02.62-.03-.88-.67-1.68-1.44-2.38-2.3-1.91-2.37-2.8-6.42.18-8.39,2.88-1.9,6.25-.03,8.13,2.38,1,1.28,1.81,2.69,2.44,4.18.23-1.81.63-3.6,1.2-5.33.94-2.83,2.41-6.68,5.62-7.42,2.87-.66,5.5,1.88,6.1,4.6.75,3.36-1.19,6.59-3.21,9.05-.17.21-.35.42-.53.63.81-.24,1.65-.34,2.52-.19,1.47.24,2.67,1.13,3.93,1.88,1.5.9,3.13,1.27,4.86.95,3.3-.62,5.57-3.39,6.5-6.56.32-1.1,2-.63,1.68.47-.9,3.08-2.86,5.86-5.8,7.18-1.48.67-3.11.94-4.71.73-1.76-.22-3.12-1.09-4.62-1.99-1.41-.85-2.73-1.23-4.3-.64-1.22.46-2.31,1.28-3.38,2.03-2.12,1.49-4.87,3.33-7.53,2.06-1.09-.52-2.46-1.43-3.68-1.53-2.37-.21-4.96.18-7.05.22-4.39.09-8.54-1.53-11.66-4.72-.79-.81.44-2.07,1.23-1.26ZM257.35,216.33c1.56-.33,2.97-1.75,4.06-2.78,1.29-1.22,2.53-2.54,3.58-3.99,1.87-2.59,3.47-6.87.24-9.17-3.42-2.43-5.65,2.9-6.5,5.41-1.16,3.39-1.6,6.96-1.38,10.53ZM251.07,215.13c.6.28,1.52.31,2.19.54.56.19,1.75.42,2.06.96.02.01.03.02.05.03.06-.07.12-.13.2-.18-.39-2.61-1.3-5.12-2.68-7.36-1.3-2.1-3.78-4.82-6.47-3.46-3.14,1.58-.58,5.56,1.11,7.12,1.06.98,2.26,1.77,3.55,2.35Z"/>
    </g>
  </g>
  <g>
    <g>
      <path class="st2" d="M170.21,182.62c.76-.68,1.76-.45,2.46.56.73,1.05,1.63,2.01,2.69,2.73,2.93,1.99,6.63,1.85,9.93.72,6.29-2.14,11.57-7.5,15.76-13.58.39-.56,1.67-2.2,2.32-1.33.51.69-1,2.98-1.34,3.58-1.31,2.34-2.96,4.39-4.72,6.25-3.32,3.49-7.17,6.36-11.41,7.66-6.08,1.87-12.31-.03-16.01-5.25-.4-.56-.15-.94.31-1.35Z"/>
      <path class="st0" d="M209.35,177.48c5.36-3.44,11.73-13.22,10.69-19.88-.44-4.4-4.06-8.34-8.4-9.16-5.36-.5-9.49,4.77-11.52,9.17-2.01-6.24-6.73-3.69-6.95,1.51-.16,2.97-.57,8.84,1.5,11.08.43.31,1.33,1.09,1.86.77,2.1,1.14,4.22,2.24,6.33,3.35,1.61.77,4.7,3.33,6.5,3.16Z"/>
    </g>
    <ellipse class="st2" cx="132.07" cy="144.92" rx="32.84" ry="31.29"/>
    <path class="st2" d="M189.94,222.03c1.94,20.39-6.94,41.22-26.54,50.39-9.44,4.42-21.57,6.23-32.9,6.23-15.49,0-23.71-2.19-33.51-6.86-19.92-9.49-28.22-29.89-25.93-49.76,3.48-30.24,26.61-56.62,59.44-56.62s56.3,23.66,59.44,56.62Z"/>
    <path class="st0" d="M137.75,201.71c4.67-.4,4.41-7.3-.04-7.83-6.24-1.11-5.99,8.38.04,7.83Z"/>
    <path class="st0" d="M139.52,235.08c5.75-.49,5.43-8.98-.05-9.64-7.68-1.37-7.38,10.32.05,9.64Z"/>
    <g>
      <path class="st0" d="M158.86,150.56c.57-.98-2.57-1.88-3.22-2.43-5.47-2.71-10.99-5.94-16.73-7.82-3.38,1.04-3.59,6.9-.64,8.51,3.92.84,7.99,1.17,12,1.52,1.37-.05,8.37,1.5,8.59.23Z"/>
      <path class="st1" d="M125.51,150.09c.8-.7,1.66-1.38,2.59-1.9.55-.24,1.05.45.62.88-.37.23-.74.47-1.11.73.03.01.06.03.1.04,1.83,3.57,6.56,6.38,10.61,5.55.87-.19,1.78-.48,2.38-1.18.14-.18.22-.43.48-.46,1.58.05-.07,1.82-.78,2.07-.91.47-1.92.69-2.94.8-4.73.73-9.82-4.21-10.68-6.18-.18.14-.35.29-.52.44-.52.49-1.26-.26-.77-.77Z"/>
      <path class="st1" d="M148.68,133.76c-4.21-2.93-4.85,5.93-.39,4.7,2.09-.68,2.1-3.59.39-4.7Z"/>
      <path class="st1" d="M126.82,134.92c-1.18,1.79.3,4.71,2.57,4.02,1.93-.67,1.76-3.42.2-4.4-.58-1.03-2.29-.53-2.78.39Z"/>
    </g>
    <g>
      <path class="st1" d="M87.02,230.31c-.29-.21-.53-.55-.71-.86-3.66-6.14-4.98-13.63-3.67-20.65,1.32-7.02,5.27-13.52,10.9-17.92,1.33-1.04,2.34-.16,2.78,1.26-5.75,3.28-9.54,9.45-10.72,15.97-1.18,6.51.07,13.31,2.69,19.39.25.57.51,1.17.46,1.79s-.53,1.26-1.16,1.23c-.21,0-.4-.09-.57-.21Z"/>
      <path class="st0" d="M97.42,251.4c4.19-1.95,3.87-7.07,2.12-10.65,3.02.84,5.33-1.51,3.88-4.45-1.03-2.65-3.26-4.56-5.19-6.55-1.62-1.44-2.78-3.48-4.45-4.8-1.45-.62-5.19,1.81-6.78,2.41-1.8,1.11-8.35,3-6.89,5.78,1.21,7.72,7.31,22.73,17.31,18.27Z"/>
    </g>
    <g>
      <path class="st0" d="M76.22,141.92c3.21-2.48,5.45-5.95,8.12-8.94,3.63-3.8,7.38-7.74,12.06-10.33.89,3.23.56,7.02,2.06,9.98t0,0c2.28,2.51,5.05-1.16,7.13-2.23,2.94-1.9,6.02-3.58,9.16-5.15,9.73-4.88,20.58-6.72,31.04-9.44,1.71-.58,2.47-1.85,1.76-3.38.24-.94-.98-1.84-1.49-2.58-6.41-6.91-14.44-12.5-23.33-16.02-18.26-7.88-32.12-1.78-40.68,15.23-4.24,10.14-7.41,21.49-7.18,32.42,0,.56.92.77,1.35.44Z"/>
      <path class="st3" d="M101.16,127.66c-2.83,2.59-5.16,5.7-4.85,9,.98,5.65,4.27,4.42,7.4.99,8.55-8.12,20.05-13.09,32-13.79,6.95-.86,14.18.84,20.99-.72,5.69-3.43-3.38-9.99-6.83-10.7-7.95-1.62-16.67-.06-24.36,2.14-6.45,1.85-12.66,4.6-18.17,8.36-1.78,1.21-4.11,2.83-6.18,4.72Z"/>
      <path class="st2" d="M70.86,142.44c-5.53,4.14,1.38,12.19,7.05,9.41,8.96-4.25.11-15.3-7.05-9.41Z"/>
      <path class="st1" d="M96.75,122.92c.3-.04.53-.32.48-.61-.5-4.04-.32-8.13-.01-12.18-.02-.71-1.1-.71-1.12,0-.05,1.28-.23,2.55-.25,3.83.13,1.28-.55,9.1.9,8.95Z"/>
    </g>
    <g>
      <path class="st0" d="M115.27,208.67c6.32-.31,10.31-2.89,9.34-9.01-.05-7.1-2.63-14.11-2.26-21.19.04-.02.06-.02.09-.05,5.18,1.12,10.5,1.94,15.83,1.8,9.3-.58,37.58-4.61,23.82-16.99-.61-1.2-4.54.19-5.79.25-10.15,1.68-20.53,2.45-30.84,2-3.97-.22-7.88-.96-11.64-2.13-3.16-.56-11.75-5.77-12.8-1.05-1.19,2.43-1.69,6.07.22,8.32.48.51,1.23.88,1.55,1.49-1.4,5.19-5.9,13.15-4.18,18.27,2.05,3.55,7.19,2.47,10.72,3.59-.55,3.6-1.02,7.25-.69,10.84.1,3.55,3.34,4.15,6.63,3.85Z"/>
      <path class="st1" d="M120.78,173.79c1.72-2.02,1.42-5.16.54-7.48-.69-1.95-2.46-.66-1.37.06,2.37,4.26-1.52,7.78.83,7.42Z"/>
      <path class="st1" d="M113.23,176.41c.04-.73-.7-.64-1.25-.73-6.19-1.64-8.04-8.59-2.93-12.33.76-.08.67-1.16-.09-1.14-.7.05-1.19.59-1.65,1.01-4.24,4.25-2.9,10.32,2.65,12.99.62.33,3.12,1.27,3.28.22Z"/>
      <path class="st1" d="M110.13,194.41c.72-4.4,1.46-18.1,5.93-20.05,1.32-.35,3.97-1.07,4.09.81.26,1.21.8,2.41.91,3.64,0,.63.99.82,1.25.23.05-1.6-.8-3.18-1.1-4.76-1.06-3-7.88-1.09-8.46,1.69-1.58,3.96-2.58,8.11-3.15,12.28-.26,2-.5,4-.73,6.01-.09.74,1.13.91,1.26.16Z"/>
      <path class="st1" d="M108.85,175.33c.08-.03.15-.08.14-.07-.04.03-.09.06-.14.07ZM105.84,182.73c.8-.48,4.51-8.45,2.94-8.49-.44-.12-.9.27-.8.67-.7,2.23-1.48,4.45-2.64,6.52-.08.13-.14.29-.28.39-.66.45.13,1.37.78.91Z"/>
      <path class="st1" d="M103.54,171.93c.3-.43.6-.82,1.01-1.16.3-.26.87-.35.85-.82-.62-1.6-2.49.66-2.96,1.4-.41.65.65,1.22,1.1.58Z"/>
    </g>
  </g>
</svg>